# xmcd
#
# Track frame offsets: 
#        150
#        9958
#        18098
#        31074
#        42535
#        54443
#        66035
#        76951
#        86941
#        98332
#        109305
#        122612
#        133034
#        145635
#        157928
#        170528
#        181201
#        192359
#        202422
#        212882
#
# Disc length: 3030 seconds
#
# Revision: 0
# Processed by: cddbd v1.5.2PL0 Copyright (c) Steve Scherf et al.
# Submitted via: ExactAudioCopyFreeDBPlugin 1.0
#
DISCID=0a0bd414
DTITLE=Ruth Brown - The Essential Recordings CD2
DYEAR=2016
DGENRE=R&B
TTITLE0=Lucky Lips
TTITLE1=This Little Girls Gone Rockin'
TTITLE2=I Want To Do More
TTITLE3=Sweet Baby of Mine
TTITLE4=Show Me
TTITLE5=Book of Lies
TTITLE6=Why Me?
TTITLE7=I'll Step aside
TTITLE8=Jack o' Diamonds
TTITLE9=Papa daddy
TTITLE10=I don't Know
TTITLE11=Don't Deceive Me
TTITLE12=I Burned Your Letter
TTITLE13=What I Wouldn't give
TTITLE14=The Door Is Still Open
TTITLE15=Taking Care of Business
TTITLE16=Sure 'Nuff
TTITLE17=Here He Comes
TTITLE18=Anyone But You
TTITLE19=Shake a Hand
EXTD=
EXTT0=
EXTT1=
EXTT2=
EXTT3=
EXTT4=
EXTT5=
EXTT6=
EXTT7=
EXTT8=
EXTT9=
EXTT10=
EXTT11=
EXTT12=
EXTT13=
EXTT14=
EXTT15=
EXTT16=
EXTT17=
EXTT18=
EXTT19=
PLAYORDER=
